<?xml version="1.0" standalone="no"?><!DOCTYPE svg PUBLIC "-//W3C//DTD SVG 1.1//EN" "http://www.w3.org/Graphics/SVG/1.1/DTD/svg11.dtd"><svg class="icon" width="32px" height="32.00px" viewBox="0 0 1024 1024" version="1.1" xmlns="http://www.w3.org/2000/svg"><path d="M512 1023.851968c-115.396649 0-213.302493-31.142164-285.825341-89.80035C147.466039 869.634265 106.725263 774.074748 106.725263 658.038192 106.725263 388.210538 354.156155 123.502144 460.807402 21.330249a80.41504 80.41504 0 0 1 110.703994 0C675.816315 120.302606 917.274737 380.318346 917.274737 668.703317a327.845932 327.845932 0 0 1-121.369118 263.641881A450.494866 450.494866 0 0 1 512 1023.851968z m4.26605-975.005697a31.355467 31.355467 0 0 0-21.330249 8.745402C392.123999 154.431005 154.718324 406.981157 154.718324 658.038192c0 198.584621 133.527361 316.967505 357.281676 316.967505 177.894279 0 357.281676-94.706307 357.281676-306.30238 0-269.401049-231.646508-517.258546-331.258772-611.324946a31.142164 31.142164 0 0 0-21.756854-8.5321z" fill="#666666" /><path d="M394.470326 844.677874l93.639795-234.632743h-158.483753a11.94494 11.94494 0 0 1-8.958705-19.837132L599.880627 319.95374a6.612377 6.612377 0 0 1 10.665125 7.252285L512 562.478675h151.018165a11.94494 11.94494 0 0 1 8.958705 19.623829L405.348753 851.716856a6.612377 6.612377 0 0 1-10.878427-7.038982z" fill="#436FFF" /></svg>