<?xml version="1.0" standalone="no"?><!DOCTYPE svg PUBLIC "-//W3C//DTD SVG 1.1//EN" "http://www.w3.org/Graphics/SVG/1.1/DTD/svg11.dtd"><svg class="icon" width="32px" height="32.00px" viewBox="0 0 1024 1024" version="1.1" xmlns="http://www.w3.org/2000/svg"><path fill="#2c2c2c" d="M271.168463 698.753898a314.90431 314.90431 0 0 1-52.034172-126.410518 141.207737 141.207737 0 0 0-54.083019-10.959698 190.022295 190.022295 0 0 0-140.394702 77.270747 34.277511 34.277511 0 0 0-6.081494 10.179185 33.074221 33.074221 0 0 0-2.113889 11.610125 31.675803 31.675803 0 0 0 0.650428 6.504271 36.619049 36.619049 0 0 0 1.853717 6.146537 34.082383 34.082383 0 0 0 3.024486 5.75628 44.29409 44.29409 0 0 0 4.097691 5.008289 37.724775 37.724775 0 0 0 5.008289 4.097692 34.082383 34.082383 0 0 0 5.756281 3.024486 29.919649 29.919649 0 0 0 6.146537 1.853717 32.293709 32.293709 0 0 0 6.504271 0.650427 33.236828 33.236828 0 0 0 24.91136-11.284911 129.402484 129.402484 0 0 1 90.669547-54.765967 129.56509 129.56509 0 0 1 90.734588 54.83101q7.772605 8.683203 15.350081 16.488328z m473.413409 10.569442a169.111062 169.111062 0 0 0 113.824753 50.180455 190.022295 190.022295 0 0 0 140.394703-77.270746 34.277511 34.277511 0 0 0 6.081494-10.179186 32.716486 32.716486 0 0 0 2.113888-11.610124 31.643281 31.643281 0 0 0-0.650427-6.504272 36.619049 36.619049 0 0 0-1.853718-6.146537 34.082383 34.082383 0 0 0-3.024486-5.75628 44.359132 44.359132 0 0 0-4.097691-5.008289 37.692254 37.692254 0 0 0-5.008289-4.097691 34.082383 34.082383 0 0 0-5.756281-3.024486 29.724521 29.724521 0 0 0-6.211579-1.853718 30.700162 30.700162 0 0 0-6.504272-0.650427 33.236828 33.236828 0 0 0-24.91136 11.284911 129.56509 129.56509 0 0 1-90.669546 54.765967 116.036205 116.036205 0 0 1-78.929336-42.017594 313.148156 313.148156 0 0 1-34.992981 57.920538z m254.31702 237.0807a190.022295 190.022295 0 0 1-140.394703 77.270746 190.022295 190.022295 0 0 1-140.427224-77.303268 129.727697 129.727697 0 0 0-90.734589-54.831009 129.727697 129.727697 0 0 0-90.734588 54.831009 190.022295 190.022295 0 0 1-140.394703 77.270747A190.022295 190.022295 0 0 1 255.785861 946.371518a129.727697 129.727697 0 0 0-90.734589-54.831009A129.727697 129.727697 0 0 0 74.316683 946.371518a32.521358 32.521358 0 0 1-11.219868 8.260425 32.521358 32.521358 0 0 1-20.065678 2.309017 36.586528 36.586528 0 0 1-6.146537-1.853718 34.049862 34.049862 0 0 1-5.75628-3.024486 44.326611 44.326611 0 0 1-5.008289-4.097691A37.692254 37.692254 0 0 1 21.989818 943.119383a34.049862 34.049862 0 0 1-3.024486-5.756281 29.887128 29.887128 0 0 1-1.853717-6.146536 32.293709 32.293709 0 0 1-0.650428-6.504272 33.074221 33.074221 0 0 1 2.113889-11.610125 32.521358 32.521358 0 0 1 6.081494-10.114142 189.989774 189.989774 0 0 1 140.394702-77.33579 190.022295 190.022295 0 0 1 140.394703 77.270747 129.727697 129.727697 0 0 0 90.734589 54.83101 129.727697 129.727697 0 0 0 90.734588-54.83101 190.022295 190.022295 0 0 1 140.394703-77.270747 190.022295 190.022295 0 0 1 140.362181 77.173183 129.727697 129.727697 0 0 0 90.734589 54.83101 129.727697 129.727697 0 0 0 90.734589-54.83101 32.521358 32.521358 0 0 1 11.219869-8.260425 32.521358 32.521358 0 0 1 20.065677-2.309016 36.619049 36.619049 0 0 1 6.146537 1.853717 34.082383 34.082383 0 0 1 5.75628 3.024486 44.29409 44.29409 0 0 1 5.00829 4.097691 37.692254 37.692254 0 0 1 4.097691 5.00829 34.049862 34.049862 0 0 1 3.024486 5.75628 29.919649 29.919649 0 0 1 1.853717 6.146537 32.293709 32.293709 0 0 1 0.650428 6.504271 33.074221 33.074221 0 0 1-2.113889 11.610125 32.521358 32.521358 0 0 1-6.081494 10.114142z m-487.137422-219.941945a224.820148 224.820148 0 0 1-206.445581-324.920888l168.460635-327.717724L511.76147 0 549.778938 73.823483l168.460634 327.782767a224.787627 224.787627 0 0 1-206.478102 324.855845z m0-578.880172l-145.760727 283.456156A145.663163 145.663163 0 0 0 373.122921 585.384444a165.436148 165.436148 0 0 0 277.244577 0 145.663163 145.663163 0 0 0 7.122177-154.151237z" /></svg>