<?xml version="1.0" standalone="no"?><!DOCTYPE svg PUBLIC "-//W3C//DTD SVG 1.1//EN" "http://www.w3.org/Graphics/SVG/1.1/DTD/svg11.dtd"><svg class="icon" width="32px" height="31.75px" viewBox="0 0 1032 1024" version="1.1" xmlns="http://www.w3.org/2000/svg"><path fill="#2c2c2c" d="M924.037394 2.098662v699.55415h-367.670933v108.541349h367.670933v105.043578H108.578168v-177.723572h363.915432v-108.54135H108.578168V0.25773H0.073637v1023.558177h1032.431469V2.098662h-108.467712zM313.216166 360.233568h130.669351v178.459946h107.363153v-438.14181h-107.363153v162.002014h-130.70617V100.330792H205.263915v438.14181h107.915432V360.19675z m334.129153-60.971667a127.134762 127.134762 0 0 1 23.122105-20.213433 42.230979 42.230979 0 0 1 24.042572-7.363728 31.332662 31.332662 0 0 1 24.742125 9.315116 40.021861 40.021861 0 0 1 8.910111 28.203078 123.784266 123.784266 0 0 1-32.584496 72.274989 841.563642 841.563642 0 0 1-97.017115 99.410327l-4.197325 3.681864v54.1234h232.951532v-77.319143h-80.080541c-5.080972 0-11.045592 0-17.267942 0.552279 10.198763-11.045592 19.661153-21.833453 28.571265-32.952682a313.952538 313.952538 0 0 0 38.770027-60.272113 142.635409 142.635409 0 0 0 15.316554-62.591687 113.401409 113.401409 0 0 0-13.843808-56.627067 97.458939 97.458939 0 0 0-39.101396-38.070473 118.408744 118.408744 0 0 0-57.142528-13.291529 125.404286 125.404286 0 0 0-60.235294 13.659715 188.474615 188.474615 0 0 0-47.127859 37.150007l-8.541924 8.910111 51.877463 51.914282z"  /></svg>