<?xml version="1.0" standalone="no"?><!DOCTYPE svg PUBLIC "-//W3C//DTD SVG 1.1//EN" "http://www.w3.org/Graphics/SVG/1.1/DTD/svg11.dtd"><svg class="icon" width="32px" height="32.00px" viewBox="0 0 1024 1024" version="1.1" xmlns="http://www.w3.org/2000/svg"><path fill="#2c2c2c" d="M 581.705 129.622 h -288.593 c -9.12018 0 -16.5012 7.50825 -16.5012 16.7911 v 159.369 c 0 9.26158 7.38098 16.777 16.5012 16.777 h 288.593 c 9.09189 0 16.4729 -7.51532 16.4729 -16.777 V 146.411 c 0 -9.28278 -7.38098 -16.7911 -16.4729 -16.7911 Z m 148.398 -100.633 l -24.7164 33.5467 l 140.167 75.4853 l -8.24351 58.7086 s -23.366 73.9582 82.4564 109.046 v 510.081 c 0 33.3206 -25.8405 60.2497 -57.7117 60.2497 s -57.7117 -26.9364 -57.7117 -60.2497 V 356.113 c 0 -46.3431 -36.9332 -83.8774 -82.4633 -83.8774 h -32.9952 V 54.1357 c 0 -18.5302 -14.762 -33.5467 -32.9669 -33.5467 H 177.654 c -18.2403 0 -32.9952 15.0165 -32.9952 33.5467 l 8.05969 857.035 h -65.9905 v 98.9927 l 659.883 0.197956 l 0.0636292 -99.1908 h -65.9905 l 8.21523 -613.788 h 32.9952 c 31.871 0 57.7117 26.9717 57.7117 60.2569 v 459.763 c 0 46.3361 36.9332 83.9056 82.4633 83.9056 s 82.4633 -37.5695 82.4633 -83.9056 V 154.791 l -214.431 -125.803 Z m -242.428 662.189 h -32.1893 v -114.815 H 333.164 v 114.815 h -31.9984 V 442.796 h 31.9984 v 106.79 h 122.322 V 442.796 h 32.1893 v 248.381 Z m 126.283 116.357 h -92.7006 v -13.2773 l 48.9804 -55.6614 c 7.24666 -8.41319 12.2733 -15.257 15.0165 -20.531 a 35.0314 35.0314 0 0 0 4.12175 -16.3598 c 0 -7.55774 -2.21996 -13.765 -6.70227 -18.6009 c -4.47524 -4.83582 -10.4069 -7.2608 -17.8798 -7.2608 c -8.92928 0 -15.886 2.6088 -20.8139 7.81225 c -4.96308 5.20345 -7.44461 12.4572 -7.44461 21.7329 h -17.9859 c 0 -13.3268 4.19245 -24.1013 12.5702 -32.3378 c 8.40612 -8.21523 19.6189 -12.3228 33.6741 -12.3228 c 13.1429 0 23.5568 3.52788 31.1925 10.5837 c 7.67085 7.07697 11.4745 16.4659 11.4745 28.1948 c 0 14.2813 -8.86566 31.242 -26.6254 50.9317 l -37.8877 42.08 h 71.0173 v 15.0165 Z m 8.96463 -493.366 c 0 18.5302 -14.762 33.5467 -32.9952 33.5467 H 284.862 c -18.2403 0 -32.9952 -15.0165 -32.9952 -33.5467 V 138.018 c 0 -18.5302 14.7549 -33.5467 32.9952 -33.5467 h 305.067 c 18.2334 0 32.9952 15.0165 32.9952 33.5467 v 176.146 Z" /></svg>